<svg xmlns="http://www.w3.org/2000/svg" viewBox="-16 -16 192 192">
  <title>藍紫與深紅玫瑰外框</title>
  <defs>
    <radialGradient id="background" cx=".25" cy=".18" r=".9"><stop stop-color="#303e64"/><stop offset=".68" stop-color="#191d37"/><stop offset="1" stop-color="#292342"/></radialGradient>
    <linearGradient id="ring" x1="0" y1="0" x2="1" y2="1"><stop stop-color="#a2b8ec" stop-opacity=".65"/><stop offset=".5" stop-color="#9283c3" stop-opacity=".32"/><stop offset="1" stop-color="#8d3657" stop-opacity=".7"/></linearGradient>
    <g id="rose" stroke="currentColor" stroke-width="1.15" stroke-linejoin="round" stroke-linecap="round">
      <path d="M0-13C5-16 10-11 11-6C17-4 17 4 11 7C10 14 4 16-1 12C-7 16-14 10-12 5C-17 0-11-8-7-8C-8-14-3-16 0-13Z" fill="currentColor" fill-opacity=".18"/>
      <path d="M-8-7L1-10L9-5L10 3L4 11L-4 9L-10 1Z" fill="currentColor" fill-opacity=".15"/>
      <path d="M-8-7L3-4L7 3L-4 9L-3 0Z" fill="none"/>
      <path d="M3-4L-3 0L-1 6L5 5L7-1Z" fill="currentColor" fill-opacity=".2"/>
      <path d="M-1 1L3 0L4 3L1 5" fill="none"/>
    </g>
  </defs>
  <circle cx="80" cy="80" r="64" fill="url(#background)"/>
  <circle cx="80" cy="80" r="63" fill="none" stroke="#b4c1ff" stroke-opacity=".25"/>
  <circle cx="80" cy="80" r="55" fill="none" stroke="#c2ceff" stroke-opacity=".14"/>
  <circle cx="80" cy="80" r="69" fill="none" stroke="url(#ring)" stroke-width="1"/>
  <g fill="none" stroke-linecap="round">
    <path d="M7 79C-3 45 29 6 73 9" stroke="#727fa9" stroke-opacity=".8" stroke-width="1.2"/>
    <path d="M153 81C164 118 130 152 87 151" stroke="#713247" stroke-opacity=".9" stroke-width="1.2"/>
  </g>
  <g fill="#636993" fill-opacity=".7">
    <path d="M7 63Q-7 55-3 45Q10 47 7 63Z"/>
    <path d="M9 57Q24 46 29 55Q18 64 9 57Z"/>
    <path d="M50 11Q48-3 60-1Q61 10 50 11Z"/>
    <path d="M58 13Q69 11 73 21Q62 24 58 13Z"/>
  </g>
  <g fill="#612a41" fill-opacity=".85">
    <path d="M153 96Q167 100 165 112Q151 110 153 96Z"/>
    <path d="M151 109Q134 114 132 125Q149 123 151 109Z"/>
    <path d="M110 149Q111 164 99 162Q98 151 110 149Z"/>
    <path d="M102 147Q96 133 88 139Q88 149 102 147Z"/>
  </g>
  <use href="#rose" transform="translate(13 34) rotate(-24) scale(1.14)" color="#94a6d8"/>
  <use href="#rose" transform="translate(35 14) rotate(12) scale(.78)" color="#a291c7"/>
  <use href="#rose" transform="translate(147 126) rotate(28) scale(1.14)" color="#a94765"/>
  <use href="#rose" transform="translate(125 147) rotate(-14) scale(.78)" color="#8c3956"/>
  <circle cx="116" cy="31" r="1.5" fill="#a2a5d5" fill-opacity=".6"/>
</svg>
